<svg width="1198" height="656" viewBox="0 0 1198 656" fill="none" xmlns="http://www.w3.org/2000/svg">
<rect x="1" y="1" width="1196" height="654" rx="24" fill="#D2D2D2"/>
<rect x="1" y="1" width="1196" height="654" rx="24" stroke="black" stroke-width="2"/>
<g filter="url(#filter0_d_4_610)">
<path d="M99.9402 31L280.06 31C293.074 31 300.66 32.5238 308.584 36.9318C316.167 41.1501 322.242 47.4696 326.297 55.3571C330.535 63.5994 332 71.4902 332 85.0276V565.972C332 579.51 330.535 587.401 326.297 595.643C322.242 603.53 316.167 609.85 308.584 614.068C300.66 618.476 293.074 620 280.06 620H99.9402C86.9258 620 79.3399 618.476 71.4161 614.068C63.8333 609.85 57.7579 603.53 53.7026 595.643C49.4649 587.401 48 579.51 48 565.972V85.0276C48 71.4902 49.4649 63.5994 53.7026 55.3571C57.7579 47.4696 63.8333 41.1501 71.4161 36.9318C79.3399 32.5238 86.9258 31 99.9402 31Z" fill="black"/>
<g filter="url(#filter1_ii_4_610)">
<path fill-rule="evenodd" clip-rule="evenodd" d="M47.5483 111.511C46.6932 111.511 46 112.208 46 113.069V132.215C46 133.075 46.6932 133.773 47.5483 133.773H48.4331C48.4331 132.602 48.448 112.655 48.4331 111.511H47.5483Z" fill="black"/>
</g>
<g filter="url(#filter2_ii_4_610)">
<path fill-rule="evenodd" clip-rule="evenodd" d="M47.5485 151.461C47.045 151.583 46.4414 151.896 46.119 152.339C46.0526 152.431 46.0001 152.72 46.0001 152.804C46.0001 156.999 46.0001 169.778 46.0001 191.14C46.0001 191.23 46.074 191.68 46.1193 191.79C46.3801 192.42 46.8334 192.572 47.5485 192.937H48.4332C48.4332 191.788 48.4481 152.584 48.4332 151.461H47.5485Z" fill="black"/>
</g>
<g filter="url(#filter3_ii_4_610)">
<path fill-rule="evenodd" clip-rule="evenodd" d="M47.5485 202.695C47.045 202.817 46.4414 203.13 46.119 203.574C46.0526 203.665 46.0001 203.954 46.0001 204.038C46.0001 208.233 46.0001 221.012 46.0001 242.374C46.0001 242.464 46.074 242.914 46.1193 243.024C46.3801 243.654 46.8334 243.806 47.5485 244.171H48.4332C48.4332 243.022 48.4481 203.818 48.4332 202.695H47.5485Z" fill="black"/>
</g>
<g filter="url(#filter4_ii_4_610)">
<path fill-rule="evenodd" clip-rule="evenodd" d="M332.012 165.49C332.515 165.61 333.119 165.92 333.441 166.359C333.508 166.449 333.56 166.736 333.56 166.818C333.56 170.972 333.56 207.826 333.56 228.974C333.56 229.062 333.486 229.508 333.441 229.617C333.18 230.24 332.727 230.391 332.012 230.752H331.127C331.127 229.615 331.112 166.601 331.127 165.49H332.012Z" fill="black"/>
<path fill-rule="evenodd" clip-rule="evenodd" d="M332.012 165.49C332.515 165.61 333.119 165.92 333.441 166.359C333.508 166.449 333.56 166.736 333.56 166.818C333.56 170.972 333.56 207.826 333.56 228.974C333.56 229.062 333.486 229.508 333.441 229.617C333.18 230.24 332.727 230.391 332.012 230.752H331.127C331.127 229.615 331.112 166.601 331.127 165.49H332.012Z" fill="url(#paint0_linear_4_610)" fill-opacity="0.4"/>
</g>
<g opacity="0.801364" clip-path="url(#clip0_4_610)">
<rect x="173.049" y="54.4813" width="34.156" height="5.48936" rx="2.74468" fill="#1D1C1C"/>
<mask id="mask0_4_610" style="mask-type:luminance" maskUnits="userSpaceOnUse" x="173" y="54" width="35" height="6">
<rect x="173.049" y="54.4813" width="34.156" height="5.48936" rx="2.74468" fill="white"/>
</mask>
<g mask="url(#mask0_4_610)">
<path fill-rule="evenodd" clip-rule="evenodd" d="M173.05 54.4813H207.206V54.7702H173.05V54.4813ZM173.049 55.6383H207.205V55.9272H173.049V55.6383ZM207.205 56.7939H173.049V57.0828H207.205V56.7939ZM173.049 57.9495H207.205V58.2384H173.049V57.9495ZM207.205 59.1051H173.049V59.394H207.205V59.1051Z" fill="black" fill-opacity="0.15"/>
<path fill-rule="evenodd" clip-rule="evenodd" d="M173.049 55.3486H207.205V55.6375H173.049V55.3486ZM173.049 56.5051H207.205V56.794H173.049V56.5051ZM207.205 57.6606H173.049V57.9496H207.205V57.6606ZM173.049 58.8162H207.205V59.1051H173.049V58.8162ZM207.205 59.9718H173.049V60.2607H207.205V59.9718Z" fill="white" fill-opacity="0.03"/>
<path fill-rule="evenodd" clip-rule="evenodd" d="M173.294 54.7355H173.587V60.0053H173.294V54.7355ZM174.463 54.7358H174.756V60.0056H174.463V54.7358ZM175.928 54.7366H175.636V60.0064H175.928V54.7366ZM176.514 54.7366H176.807V60.0064H176.514V54.7366ZM177.978 54.7366H177.685V60.0064H177.978V54.7366ZM178.856 54.7366H179.149V60.0064H178.856V54.7366ZM180.32 54.7366H180.027V60.0064H180.32V54.7366ZM180.905 54.7366H181.198V60.0064H180.905V54.7366ZM182.369 54.7366H182.076V60.0064H182.369V54.7366ZM183.247 54.7366H183.54V60.0064H183.247V54.7366ZM184.711 54.7366H184.419V60.0064H184.711V54.7366ZM185.297 54.7366H185.59V60.0064H185.297V54.7366ZM186.761 54.7366H186.468V60.0064H186.761V54.7366ZM187.639 54.7366H187.932V60.0064H187.639V54.7366ZM189.103 54.7366H188.81V60.0064H189.103V54.7366ZM189.688 54.7366H189.981V60.0064H189.688V54.7366ZM191.152 54.7366H190.859V60.0064H191.152V54.7366ZM192.031 54.7366H192.323V60.0064H192.031V54.7366ZM193.494 54.7366H193.202V60.0064H193.494V54.7366ZM194.08 54.7366H194.373V60.0064H194.08V54.7366ZM195.544 54.7366H195.251V60.0064H195.544V54.7366ZM196.422 54.7366H196.715V60.0064H196.422V54.7366ZM197.886 54.7366H197.593V60.0064H197.886V54.7366ZM198.471 54.7366H198.764V60.0064H198.471V54.7366ZM199.935 54.7366H199.642V60.0064H199.935V54.7366ZM200.814 54.7366H201.106V60.0064H200.814V54.7366ZM202.277 54.7366H201.984V60.0064H202.277V54.7366ZM202.863 54.7366H203.155V60.0064H202.863V54.7366ZM204.327 54.7366H204.034V60.0064H204.327V54.7366ZM205.205 54.7366H205.498V60.0064H205.205V54.7366ZM206.669 54.7366H206.376V60.0064H206.669V54.7366Z" fill="black" fill-opacity="0.15"/>
<path fill-rule="evenodd" clip-rule="evenodd" d="M177.394 54.7364H177.101V60.0062H177.394V54.7364ZM173.882 54.7366H174.174V60.0064H173.882V54.7366ZM172.71 54.7375H173.002V60.0073H172.71V54.7375ZM175.344 54.7379H175.051V60.0077H175.344V54.7379ZM175.929 54.7379H176.221V60.0077H175.929V54.7379ZM178.272 54.7364H178.565V60.0062H178.272V54.7364ZM179.736 54.7364H179.443V60.0062H179.736V54.7364ZM180.322 54.7364H180.614V60.0062H180.322V54.7364ZM181.785 54.7364H181.493V60.0062H181.785V54.7364ZM182.664 54.7364H182.956V60.0062H182.664V54.7364ZM184.128 54.7364H183.835V60.0062H184.128V54.7364ZM184.713 54.7364H185.006V60.0062H184.713V54.7364ZM186.177 54.7364H185.884V60.0062H186.177V54.7364ZM187.055 54.7364H187.348V60.0062H187.055V54.7364ZM188.519 54.7364H188.226V60.0062H188.519V54.7364ZM189.105 54.7364H189.397V60.0062H189.105V54.7364ZM190.568 54.7364H190.276V60.0062H190.568V54.7364ZM191.447 54.7364H191.74V60.0062H191.447V54.7364ZM192.911 54.7364H192.618V60.0062H192.911V54.7364ZM193.496 54.7364H193.789V60.0062H193.496V54.7364ZM194.96 54.7364H194.667V60.0062H194.96V54.7364ZM195.838 54.7364H196.131V60.0062H195.838V54.7364ZM197.302 54.7364H197.009V60.0062H197.302V54.7364ZM197.888 54.7364H198.18V60.0062H197.888V54.7364ZM199.351 54.7364H199.059V60.0062H199.351V54.7364ZM200.23 54.7364H200.523V60.0062H200.23V54.7364ZM201.694 54.7364H201.401V60.0062H201.694V54.7364ZM202.279 54.7364H202.572V60.0062H202.279V54.7364ZM203.743 54.7364H203.45V60.0062H203.743V54.7364ZM204.621 54.7364H204.914V60.0062H204.621V54.7364ZM206.085 54.7364H205.792V60.0062H206.085V54.7364Z" fill="white" fill-opacity="0.03"/>
</g>
<g opacity="0.244441" filter="url(#filter5_iii_4_610)">
<rect x="173.049" y="54.4813" width="34.156" height="5.48936" rx="2.74468" fill="black" fill-opacity="0.01"/>
</g>
<mask id="mask1_4_610" style="mask-type:luminance" maskUnits="userSpaceOnUse" x="173" y="54" width="35" height="6">
<rect x="173.049" y="54.4813" width="34.156" height="5.48936" rx="2.74468" fill="white"/>
</mask>
<g mask="url(#mask1_4_610)">
</g>
</g>
<g clip-path="url(#clip1_4_610)">
<path fill-rule="evenodd" clip-rule="evenodd" d="M219.556 60.8865C221.662 60.8865 223.368 59.1798 223.368 57.0744C223.368 54.9691 221.662 53.2624 219.556 53.2624C217.451 53.2624 215.744 54.9691 215.744 57.0744C215.744 59.1798 217.451 60.8865 219.556 60.8865Z" fill="url(#paint1_radial_4_610)"/>
<g opacity="0.387535" filter="url(#filter6_dd_4_610)">
<path fill-rule="evenodd" clip-rule="evenodd" d="M219.555 59.3602C220.819 59.3602 221.843 58.3362 221.843 57.073C221.843 55.8098 220.819 54.7858 219.555 54.7858C218.292 54.7858 217.268 55.8098 217.268 57.073C217.268 58.3362 218.292 59.3602 219.555 59.3602Z" fill="url(#paint2_radial_4_610)"/>
</g>
<mask id="mask2_4_610" style="mask-type:luminance" maskUnits="userSpaceOnUse" x="217" y="54" width="5" height="6">
<path fill-rule="evenodd" clip-rule="evenodd" d="M219.555 59.3602C220.819 59.3602 221.843 58.3362 221.843 57.073C221.843 55.8098 220.819 54.7858 219.555 54.7858C218.292 54.7858 217.268 55.8098 217.268 57.073C217.268 58.3362 218.292 59.3602 219.555 59.3602Z" fill="white"/>
</mask>
<g mask="url(#mask2_4_610)">
<g filter="url(#filter7_f_4_610)">
<path fill-rule="evenodd" clip-rule="evenodd" d="M217.994 56.6137C218.19 55.8271 218.751 55.2048 218.33 55.0998C217.909 54.9948 217.809 54.9983 217.192 56.4935C216.574 57.9887 217.278 58.6091 217.699 58.7141C218.12 58.8191 217.798 57.4003 217.994 56.6137Z" fill="#3E89CC"/>
</g>
<g filter="url(#filter8_f_4_610)">
<path fill-rule="evenodd" clip-rule="evenodd" d="M221.082 58.1419C221.839 58.1419 222.454 57.3909 222.454 56.4646C222.454 55.5382 221.839 54.7873 221.082 54.7873C220.324 54.7873 219.709 55.5382 219.709 56.4646C219.709 57.3909 220.324 58.1419 221.082 58.1419Z" fill="#1C5894"/>
</g>
<g filter="url(#filter9_f_4_610)">
<path fill-rule="evenodd" clip-rule="evenodd" d="M220.236 60.116C221.289 59.8143 221.973 58.979 221.764 58.2505C221.555 57.5219 220.532 57.1759 219.48 57.4777C218.428 57.7794 217.744 58.6147 217.953 59.3432C218.162 60.0718 219.184 60.4178 220.236 60.116Z" fill="#0A152B"/>
</g>
</g>
</g>
<path fill-rule="evenodd" clip-rule="evenodd" d="M116.021 52.6526C118.211 52.6526 119.986 54.4276 119.986 56.6172C120.191 60.3263 120.916 62.678 122.063 64.8236C123.419 67.3582 125.408 69.3474 127.942 70.7029C130.477 72.0584 133.324 72.7803 138.261 72.7803H241.994C246.932 72.7803 249.778 72.0584 252.313 70.7029C254.847 69.3474 256.837 67.3582 258.192 64.8236C259.339 62.6784 260.039 60.3017 260.269 56.6172C260.269 54.4276 262.044 52.6526 264.234 52.6526L283.934 52.6526C295.217 52.6526 299.309 53.8275 303.434 56.0335C307.559 58.2395 310.796 61.4768 313.002 65.6017C315.208 69.7266 316.383 73.8182 316.383 85.1012V566.7C316.383 577.983 315.208 582.075 313.002 586.2C310.796 590.325 307.559 593.562 303.434 595.768C299.309 597.974 295.217 599.149 283.934 599.149H96.321C85.0379 599.149 80.9464 597.974 76.8214 595.768C72.6965 593.562 69.4592 590.325 67.2532 586.2C65.0472 582.075 63.8724 577.983 63.8724 566.7V85.1012C63.8724 73.8182 65.0472 69.7266 67.2532 65.6017C69.4592 61.4768 72.6965 58.2395 76.8214 56.0335C80.9464 53.8275 85.0379 52.6526 96.321 52.6526H116.021Z" fill="#777777"/>
<mask id="mask3_4_610" style="mask-type:luminance" maskUnits="userSpaceOnUse" x="63" y="52" width="254" height="548">
<path fill-rule="evenodd" clip-rule="evenodd" d="M116.021 52.6526C118.211 52.6526 119.986 54.4276 119.986 56.6172C120.191 60.3263 120.916 62.678 122.063 64.8236C123.419 67.3582 125.408 69.3474 127.942 70.7029C130.477 72.0584 133.324 72.7803 138.261 72.7803H241.994C246.932 72.7803 249.778 72.0584 252.313 70.7029C254.847 69.3474 256.837 67.3582 258.192 64.8236C259.339 62.6784 260.039 60.3017 260.269 56.6172C260.269 54.4276 262.044 52.6526 264.234 52.6526L283.934 52.6526C295.217 52.6526 299.309 53.8275 303.434 56.0335C307.559 58.2395 310.796 61.4768 313.002 65.6017C315.208 69.7266 316.383 73.8182 316.383 85.1012V566.7C316.383 577.983 315.208 582.075 313.002 586.2C310.796 590.325 307.559 593.562 303.434 595.768C299.309 597.974 295.217 599.149 283.934 599.149H96.321C85.0379 599.149 80.9464 597.974 76.8214 595.768C72.6965 593.562 69.4592 590.325 67.2532 586.2C65.0472 582.075 63.8724 577.983 63.8724 566.7V85.1012C63.8724 73.8182 65.0472 69.7266 67.2532 65.6017C69.4592 61.4768 72.6965 58.2395 76.8214 56.0335C80.9464 53.8275 85.0379 52.6526 96.321 52.6526H116.021Z" fill="white"/>
</mask>
<g mask="url(#mask3_4_610)">
<path fill-rule="evenodd" clip-rule="evenodd" d="M63.5226 51.7902H316.468V599.26H63.5226V51.7902Z" fill="white"/>
</g>
</g>
<g filter="url(#filter10_d_4_610)">
<rect x="359.56" y="54.3402" width="252" height="548" rx="25" fill="white"/>
</g>
<g filter="url(#filter11_d_4_610)">
<rect x="631.56" y="54.3402" width="252" height="548" rx="25" fill="white"/>
</g>
<g filter="url(#filter12_d_4_610)">
<rect x="903.56" y="54.3402" width="252" height="548" rx="25" fill="white"/>
</g>
<rect width="1198" height="656" rx="25" fill="black" fill-opacity="0.3"/>
<path d="M477.197 321.462H471.658C471.445 320.278 471.048 319.236 470.468 318.337C469.888 317.437 469.178 316.674 468.337 316.046C467.497 315.419 466.556 314.945 465.514 314.626C464.484 314.306 463.389 314.146 462.229 314.146C460.134 314.146 458.258 314.673 456.601 315.727C454.955 316.78 453.653 318.325 452.695 320.361C451.748 322.397 451.274 324.883 451.274 327.818C451.274 330.777 451.748 333.275 452.695 335.311C453.653 337.347 454.961 338.886 456.619 339.928C458.276 340.969 460.14 341.49 462.212 341.49C463.36 341.49 464.449 341.336 465.479 341.028C466.52 340.709 467.461 340.241 468.302 339.626C469.142 339.01 469.853 338.259 470.433 337.371C471.024 336.471 471.433 335.441 471.658 334.281L477.197 334.299C476.902 336.086 476.327 337.732 475.475 339.235C474.635 340.727 473.552 342.017 472.226 343.106C470.912 344.183 469.409 345.018 467.716 345.609C466.023 346.201 464.177 346.497 462.176 346.497C459.027 346.497 456.222 345.751 453.76 344.26C451.298 342.757 449.357 340.608 447.936 337.815C446.527 335.021 445.823 331.689 445.823 327.818C445.823 323.936 446.533 320.603 447.954 317.822C449.374 315.028 451.316 312.886 453.778 311.394C456.24 309.891 459.039 309.139 462.176 309.139C464.106 309.139 465.905 309.417 467.574 309.974C469.255 310.518 470.764 311.323 472.102 312.388C473.439 313.442 474.546 314.732 475.422 316.259C476.298 317.774 476.89 319.509 477.197 321.462ZM494.824 346.55C492.268 346.55 490.036 345.964 488.131 344.793C486.225 343.621 484.745 341.981 483.692 339.874C482.638 337.767 482.111 335.305 482.111 332.488C482.111 329.659 482.638 327.185 483.692 325.066C484.745 322.947 486.225 321.302 488.131 320.13C490.036 318.958 492.268 318.372 494.824 318.372C497.381 318.372 499.613 318.958 501.518 320.13C503.424 321.302 504.904 322.947 505.957 325.066C507.011 327.185 507.537 329.659 507.537 332.488C507.537 335.305 507.011 337.767 505.957 339.874C504.904 341.981 503.424 343.621 501.518 344.793C499.613 345.964 497.381 346.55 494.824 346.55ZM494.842 342.094C496.499 342.094 497.872 341.656 498.961 340.78C500.05 339.904 500.855 338.738 501.376 337.282C501.909 335.826 502.175 334.222 502.175 332.47C502.175 330.73 501.909 329.132 501.376 327.676C500.855 326.208 500.05 325.031 498.961 324.143C497.872 323.255 496.499 322.811 494.842 322.811C493.173 322.811 491.788 323.255 490.687 324.143C489.598 325.031 488.787 326.208 488.255 327.676C487.734 329.132 487.474 330.73 487.474 332.47C487.474 334.222 487.734 335.826 488.255 337.282C488.787 338.738 489.598 339.904 490.687 340.78C491.788 341.656 493.173 342.094 494.842 342.094ZM513.463 346V318.727H518.559V323.166H518.897C519.465 321.663 520.394 320.491 521.684 319.651C522.975 318.798 524.519 318.372 526.319 318.372C528.141 318.372 529.668 318.798 530.9 319.651C532.142 320.503 533.06 321.675 533.652 323.166H533.936C534.587 321.71 535.623 320.55 537.043 319.686C538.463 318.81 540.156 318.372 542.121 318.372C544.595 318.372 546.613 319.147 548.176 320.698C549.75 322.249 550.537 324.587 550.537 327.712V346H545.228V328.209C545.228 326.362 544.725 325.025 543.719 324.196C542.713 323.367 541.511 322.953 540.115 322.953C538.386 322.953 537.043 323.486 536.084 324.551C535.125 325.605 534.646 326.96 534.646 328.617V346H529.355V327.871C529.355 326.392 528.893 325.202 527.97 324.303C527.047 323.403 525.845 322.953 524.365 322.953C523.359 322.953 522.43 323.219 521.578 323.752C520.737 324.273 520.057 325.001 519.536 325.936C519.027 326.871 518.772 327.954 518.772 329.185V346H513.463ZM557.653 346V318.727H562.962V346H557.653ZM560.334 314.519C559.411 314.519 558.618 314.211 557.955 313.596C557.304 312.969 556.978 312.223 556.978 311.359C556.978 310.483 557.304 309.737 557.955 309.121C558.618 308.494 559.411 308.18 560.334 308.18C561.257 308.18 562.044 308.494 562.695 309.121C563.358 309.737 563.69 310.483 563.69 311.359C563.69 312.223 563.358 312.969 562.695 313.596C562.044 314.211 561.257 314.519 560.334 314.519ZM575.413 329.807V346H570.104V318.727H575.2V323.166H575.537C576.165 321.722 577.147 320.562 578.485 319.686C579.834 318.81 581.533 318.372 583.581 318.372C585.439 318.372 587.067 318.763 588.463 319.544C589.86 320.313 590.943 321.462 591.713 322.989C592.482 324.516 592.867 326.404 592.867 328.653V346H587.558V329.292C587.558 327.315 587.043 325.77 586.013 324.658C584.983 323.533 583.569 322.971 581.77 322.971C580.538 322.971 579.444 323.237 578.485 323.77C577.538 324.303 576.786 325.084 576.23 326.114C575.685 327.132 575.413 328.363 575.413 329.807ZM611.422 356.795C609.255 356.795 607.391 356.511 605.828 355.943C604.278 355.375 603.011 354.623 602.029 353.688C601.046 352.753 600.312 351.729 599.827 350.616L604.39 348.734C604.71 349.255 605.136 349.806 605.669 350.386C606.213 350.978 606.947 351.481 607.87 351.895C608.806 352.309 610.007 352.516 611.475 352.516C613.487 352.516 615.15 352.025 616.464 351.043C617.778 350.072 618.435 348.521 618.435 346.391V341.028H618.098C617.778 341.608 617.316 342.254 616.713 342.964C616.121 343.674 615.304 344.29 614.262 344.81C613.221 345.331 611.865 345.592 610.196 345.592C608.042 345.592 606.101 345.089 604.373 344.082C602.656 343.064 601.295 341.567 600.289 339.59C599.294 337.602 598.797 335.157 598.797 332.257C598.797 329.357 599.288 326.871 600.271 324.8C601.265 322.728 602.627 321.142 604.355 320.041C606.083 318.929 608.042 318.372 610.232 318.372C611.925 318.372 613.292 318.656 614.333 319.224C615.375 319.781 616.186 320.432 616.766 321.178C617.358 321.923 617.814 322.58 618.133 323.148H618.524V318.727H623.726V346.604C623.726 348.947 623.182 350.871 622.093 352.374C621.004 353.878 619.53 354.99 617.672 355.712C615.825 356.434 613.742 356.795 611.422 356.795ZM611.368 341.188C612.895 341.188 614.185 340.833 615.239 340.123C616.304 339.401 617.109 338.371 617.654 337.033C618.21 335.684 618.488 334.068 618.488 332.186C618.488 330.351 618.216 328.736 617.672 327.339C617.127 325.942 616.328 324.853 615.275 324.072C614.221 323.279 612.919 322.882 611.368 322.882C609.77 322.882 608.439 323.296 607.373 324.125C606.308 324.942 605.503 326.054 604.958 327.463C604.426 328.872 604.159 330.446 604.159 332.186C604.159 333.973 604.432 335.542 604.976 336.891C605.521 338.241 606.326 339.294 607.391 340.052C608.468 340.809 609.794 341.188 611.368 341.188ZM664.515 325.386L659.704 326.238C659.502 325.622 659.183 325.036 658.745 324.48C658.319 323.924 657.739 323.468 657.005 323.113C656.271 322.758 655.354 322.58 654.253 322.58C652.749 322.58 651.495 322.918 650.488 323.592C649.482 324.255 648.979 325.113 648.979 326.167C648.979 327.078 649.317 327.812 649.991 328.369C650.666 328.925 651.755 329.381 653.258 329.736L657.591 330.73C660.1 331.31 661.97 332.204 663.202 333.411C664.433 334.619 665.048 336.187 665.048 338.116C665.048 339.75 664.575 341.206 663.628 342.484C662.693 343.751 661.385 344.745 659.704 345.467C658.035 346.189 656.099 346.55 653.898 346.55C650.844 346.55 648.352 345.899 646.422 344.597C644.493 343.283 643.309 341.419 642.871 339.004L648.003 338.223C648.322 339.561 648.979 340.573 649.974 341.259C650.968 341.934 652.264 342.271 653.862 342.271C655.602 342.271 656.993 341.91 658.035 341.188C659.076 340.454 659.597 339.561 659.597 338.507C659.597 337.655 659.278 336.939 658.638 336.359C658.011 335.779 657.046 335.341 655.744 335.045L651.128 334.033C648.583 333.453 646.701 332.529 645.481 331.263C644.274 329.996 643.67 328.392 643.67 326.451C643.67 324.841 644.12 323.433 645.02 322.225C645.919 321.018 647.162 320.077 648.748 319.402C650.335 318.715 652.152 318.372 654.199 318.372C657.147 318.372 659.467 319.011 661.16 320.29C662.852 321.556 663.971 323.255 664.515 325.386ZM682.373 346.55C679.816 346.55 677.585 345.964 675.679 344.793C673.774 343.621 672.294 341.981 671.24 339.874C670.187 337.767 669.66 335.305 669.66 332.488C669.66 329.659 670.187 327.185 671.24 325.066C672.294 322.947 673.774 321.302 675.679 320.13C677.585 318.958 679.816 318.372 682.373 318.372C684.93 318.372 687.161 318.958 689.067 320.13C690.973 321.302 692.453 322.947 693.506 325.066C694.56 327.185 695.086 329.659 695.086 332.488C695.086 335.305 694.56 337.767 693.506 339.874C692.453 341.981 690.973 343.621 689.067 344.793C687.161 345.964 684.93 346.55 682.373 346.55ZM682.391 342.094C684.048 342.094 685.421 341.656 686.51 340.78C687.599 339.904 688.404 338.738 688.925 337.282C689.458 335.826 689.724 334.222 689.724 332.47C689.724 330.73 689.458 329.132 688.925 327.676C688.404 326.208 687.599 325.031 686.51 324.143C685.421 323.255 684.048 322.811 682.391 322.811C680.722 322.811 679.337 323.255 678.236 324.143C677.147 325.031 676.336 326.208 675.804 327.676C675.283 329.132 675.022 330.73 675.022 332.47C675.022 334.222 675.283 335.826 675.804 337.282C676.336 338.738 677.147 339.904 678.236 340.78C679.337 341.656 680.722 342.094 682.391 342.094ZM712.5 346.55C709.943 346.55 707.712 345.964 705.806 344.793C703.901 343.621 702.421 341.981 701.367 339.874C700.314 337.767 699.787 335.305 699.787 332.488C699.787 329.659 700.314 327.185 701.367 325.066C702.421 322.947 703.901 321.302 705.806 320.13C707.712 318.958 709.943 318.372 712.5 318.372C715.057 318.372 717.288 318.958 719.194 320.13C721.1 321.302 722.579 322.947 723.633 325.066C724.686 327.185 725.213 329.659 725.213 332.488C725.213 335.305 724.686 337.767 723.633 339.874C722.579 341.981 721.1 343.621 719.194 344.793C717.288 345.964 715.057 346.55 712.5 346.55ZM712.518 342.094C714.175 342.094 715.548 341.656 716.637 340.78C717.726 339.904 718.531 338.738 719.052 337.282C719.585 335.826 719.851 334.222 719.851 332.47C719.851 330.73 719.585 329.132 719.052 327.676C718.531 326.208 717.726 325.031 716.637 324.143C715.548 323.255 714.175 322.811 712.518 322.811C710.849 322.811 709.464 323.255 708.363 324.143C707.274 325.031 706.463 326.208 705.931 327.676C705.41 329.132 705.149 330.73 705.149 332.47C705.149 334.222 705.41 335.826 705.931 337.282C706.463 338.738 707.274 339.904 708.363 340.78C709.464 341.656 710.849 342.094 712.518 342.094ZM736.448 329.807V346H731.139V318.727H736.235V323.166H736.572C737.2 321.722 738.182 320.562 739.52 319.686C740.869 318.81 742.568 318.372 744.616 318.372C746.474 318.372 748.102 318.763 749.499 319.544C750.895 320.313 751.978 321.462 752.748 322.989C753.517 324.516 753.902 326.404 753.902 328.653V346H748.593V329.292C748.593 327.315 748.078 325.77 747.048 324.658C746.018 323.533 744.604 322.971 742.805 322.971C741.574 322.971 740.479 323.237 739.52 323.77C738.573 324.303 737.821 325.084 737.265 326.114C736.72 327.132 736.448 328.363 736.448 329.807Z" fill="white"/>
<defs>
<filter id="filter0_d_4_610" x="36" y="31" width="318.56" height="614.68" filterUnits="userSpaceOnUse" color-interpolation-filters="sRGB">
<feFlood flood-opacity="0" result="BackgroundImageFix"/>
<feColorMatrix in="SourceAlpha" type="matrix" values="0 0 0 0 0 0 0 0 0 0 0 0 0 0 0 0 0 0 127 0" result="hardAlpha"/>
<feOffset dx="5" dy="10"/>
<feGaussianBlur stdDeviation="5"/>
<feComposite in2="hardAlpha" operator="out"/>
<feColorMatrix type="matrix" values="0 0 0 0 0.366602 0 0 0 0 0.366602 0 0 0 0 0.366602 0 0 0 0.5 0"/>
<feBlend mode="normal" in2="BackgroundImageFix" result="effect1_dropShadow_4_610"/>
<feBlend mode="normal" in="SourceGraphic" in2="effect1_dropShadow_4_610" result="shape"/>
</filter>
<filter id="filter1_ii_4_610" x="46" y="110.901" width="2.4397" height="23.4822" filterUnits="userSpaceOnUse" color-interpolation-filters="sRGB">
<feFlood flood-opacity="0" result="BackgroundImageFix"/>
<feBlend mode="normal" in="SourceGraphic" in2="BackgroundImageFix" result="shape"/>
<feColorMatrix in="SourceAlpha" type="matrix" values="0 0 0 0 0 0 0 0 0 0 0 0 0 0 0 0 0 0 127 0" result="hardAlpha"/>
<feOffset dy="1.52482"/>
<feGaussianBlur stdDeviation="0.304964"/>
<feComposite in2="hardAlpha" operator="arithmetic" k2="-1" k3="1"/>
<feColorMatrix type="matrix" values="0 0 0 0 0 0 0 0 0 0 0 0 0 0 0 0 0 0 0.65257 0"/>
<feBlend mode="normal" in2="shape" result="effect1_innerShadow_4_610"/>
<feColorMatrix in="SourceAlpha" type="matrix" values="0 0 0 0 0 0 0 0 0 0 0 0 0 0 0 0 0 0 127 0" result="hardAlpha"/>
<feOffset dy="-1.52482"/>
<feGaussianBlur stdDeviation="0.304964"/>
<feComposite in2="hardAlpha" operator="arithmetic" k2="-1" k3="1"/>
<feColorMatrix type="matrix" values="0 0 0 0 0 0 0 0 0 0 0 0 0 0 0 0 0 0 0.648749 0"/>
<feBlend mode="normal" in2="effect1_innerShadow_4_610" result="effect2_innerShadow_4_610"/>
</filter>
<filter id="filter2_ii_4_610" x="46.0001" y="150.851" width="2.4397" height="42.695" filterUnits="userSpaceOnUse" color-interpolation-filters="sRGB">
<feFlood flood-opacity="0" result="BackgroundImageFix"/>
<feBlend mode="normal" in="SourceGraphic" in2="BackgroundImageFix" result="shape"/>
<feColorMatrix in="SourceAlpha" type="matrix" values="0 0 0 0 0 0 0 0 0 0 0 0 0 0 0 0 0 0 127 0" result="hardAlpha"/>
<feOffset dy="1.52482"/>
<feGaussianBlur stdDeviation="0.304964"/>
<feComposite in2="hardAlpha" operator="arithmetic" k2="-1" k3="1"/>
<feColorMatrix type="matrix" values="0 0 0 0 0 0 0 0 0 0 0 0 0 0 0 0 0 0 0.65257 0"/>
<feBlend mode="normal" in2="shape" result="effect1_innerShadow_4_610"/>
<feColorMatrix in="SourceAlpha" type="matrix" values="0 0 0 0 0 0 0 0 0 0 0 0 0 0 0 0 0 0 127 0" result="hardAlpha"/>
<feOffset dy="-1.52482"/>
<feGaussianBlur stdDeviation="0.304964"/>
<feComposite in2="hardAlpha" operator="arithmetic" k2="-1" k3="1"/>
<feColorMatrix type="matrix" values="0 0 0 0 0 0 0 0 0 0 0 0 0 0 0 0 0 0 0.648749 0"/>
<feBlend mode="normal" in2="effect1_innerShadow_4_610" result="effect2_innerShadow_4_610"/>
</filter>
<filter id="filter3_ii_4_610" x="46.0001" y="202.086" width="2.4397" height="42.695" filterUnits="userSpaceOnUse" color-interpolation-filters="sRGB">
<feFlood flood-opacity="0" result="BackgroundImageFix"/>
<feBlend mode="normal" in="SourceGraphic" in2="BackgroundImageFix" result="shape"/>
<feColorMatrix in="SourceAlpha" type="matrix" values="0 0 0 0 0 0 0 0 0 0 0 0 0 0 0 0 0 0 127 0" result="hardAlpha"/>
<feOffset dy="1.52482"/>
<feGaussianBlur stdDeviation="0.304964"/>
<feComposite in2="hardAlpha" operator="arithmetic" k2="-1" k3="1"/>
<feColorMatrix type="matrix" values="0 0 0 0 0 0 0 0 0 0 0 0 0 0 0 0 0 0 0.65257 0"/>
<feBlend mode="normal" in2="shape" result="effect1_innerShadow_4_610"/>
<feColorMatrix in="SourceAlpha" type="matrix" values="0 0 0 0 0 0 0 0 0 0 0 0 0 0 0 0 0 0 127 0" result="hardAlpha"/>
<feOffset dy="-1.52482"/>
<feGaussianBlur stdDeviation="0.304964"/>
<feComposite in2="hardAlpha" operator="arithmetic" k2="-1" k3="1"/>
<feColorMatrix type="matrix" values="0 0 0 0 0 0 0 0 0 0 0 0 0 0 0 0 0 0 0.648749 0"/>
<feBlend mode="normal" in2="effect1_innerShadow_4_610" result="effect2_innerShadow_4_610"/>
</filter>
<filter id="filter4_ii_4_610" x="331.121" y="164.88" width="2.4397" height="66.4822" filterUnits="userSpaceOnUse" color-interpolation-filters="sRGB">
<feFlood flood-opacity="0" result="BackgroundImageFix"/>
<feBlend mode="normal" in="SourceGraphic" in2="BackgroundImageFix" result="shape"/>
<feColorMatrix in="SourceAlpha" type="matrix" values="0 0 0 0 0 0 0 0 0 0 0 0 0 0 0 0 0 0 127 0" result="hardAlpha"/>
<feOffset dy="1.52482"/>
<feGaussianBlur stdDeviation="0.304964"/>
<feComposite in2="hardAlpha" operator="arithmetic" k2="-1" k3="1"/>
<feColorMatrix type="matrix" values="0 0 0 0 0 0 0 0 0 0 0 0 0 0 0 0 0 0 0.498953 0"/>
<feBlend mode="normal" in2="shape" result="effect1_innerShadow_4_610"/>
<feColorMatrix in="SourceAlpha" type="matrix" values="0 0 0 0 0 0 0 0 0 0 0 0 0 0 0 0 0 0 127 0" result="hardAlpha"/>
<feOffset dy="-1.52482"/>
<feGaussianBlur stdDeviation="0.304964"/>
<feComposite in2="hardAlpha" operator="arithmetic" k2="-1" k3="1"/>
<feColorMatrix type="matrix" values="0 0 0 0 0 0 0 0 0 0 0 0 0 0 0 0 0 0 0.497368 0"/>
<feBlend mode="normal" in2="effect1_innerShadow_4_610" result="effect2_innerShadow_4_610"/>
</filter>
<filter id="filter5_iii_4_610" x="173.049" y="54.4813" width="34.156" height="5.48938" filterUnits="userSpaceOnUse" color-interpolation-filters="sRGB">
<feFlood flood-opacity="0" result="BackgroundImageFix"/>
<feBlend mode="normal" in="SourceGraphic" in2="BackgroundImageFix" result="shape"/>
<feColorMatrix in="SourceAlpha" type="matrix" values="0 0 0 0 0 0 0 0 0 0 0 0 0 0 0 0 0 0 127 0" result="hardAlpha"/>
<feOffset/>
<feGaussianBlur stdDeviation="0.457447"/>
<feComposite in2="hardAlpha" operator="arithmetic" k2="-1" k3="1"/>
<feColorMatrix type="matrix" values="0 0 0 0 0 0 0 0 0 0 0 0 0 0 0 0 0 0 0.795035 0"/>
<feBlend mode="normal" in2="shape" result="effect1_innerShadow_4_610"/>
<feColorMatrix in="SourceAlpha" type="matrix" values="0 0 0 0 0 0 0 0 0 0 0 0 0 0 0 0 0 0 127 0" result="hardAlpha"/>
<feOffset dy="-0.914893"/>
<feComposite in2="hardAlpha" operator="arithmetic" k2="-1" k3="1"/>
<feColorMatrix type="matrix" values="0 0 0 0 0 0 0 0 0 0 0 0 0 0 0 0 0 0 0.80013 0"/>
<feBlend mode="normal" in2="effect1_innerShadow_4_610" result="effect2_innerShadow_4_610"/>
<feColorMatrix in="SourceAlpha" type="matrix" values="0 0 0 0 0 0 0 0 0 0 0 0 0 0 0 0 0 0 127 0" result="hardAlpha"/>
<feOffset dy="-0.609929"/>
<feComposite in2="hardAlpha" operator="arithmetic" k2="-1" k3="1"/>
<feColorMatrix type="matrix" values="0 0 0 0 1 0 0 0 0 1 0 0 0 0 1 0 0 0 0.197067 0"/>
<feBlend mode="normal" in2="effect2_innerShadow_4_610" result="effect3_innerShadow_4_610"/>
</filter>
<filter id="filter6_dd_4_610" x="216.048" y="53.5659" width="7.01418" height="7.01418" filterUnits="userSpaceOnUse" color-interpolation-filters="sRGB">
<feFlood flood-opacity="0" result="BackgroundImageFix"/>
<feColorMatrix in="SourceAlpha" type="matrix" values="0 0 0 0 0 0 0 0 0 0 0 0 0 0 0 0 0 0 127 0" result="hardAlpha"/>
<feOffset/>
<feGaussianBlur stdDeviation="0.609929"/>
<feColorMatrix type="matrix" values="0 0 0 0 0 0 0 0 0 0 0 0 0 0 0 0 0 0 0.4 0"/>
<feBlend mode="normal" in2="BackgroundImageFix" result="effect1_dropShadow_4_610"/>
<feColorMatrix in="SourceAlpha" type="matrix" values="0 0 0 0 0 0 0 0 0 0 0 0 0 0 0 0 0 0 127 0" result="hardAlpha"/>
<feOffset/>
<feColorMatrix type="matrix" values="0 0 0 0 0 0 0 0 0 0 0 0 0 0 0 0 0 0 1 0"/>
<feBlend mode="normal" in2="effect1_dropShadow_4_610" result="effect2_dropShadow_4_610"/>
<feBlend mode="normal" in="SourceGraphic" in2="effect2_dropShadow_4_610" result="shape"/>
</filter>
<filter id="filter7_f_4_610" x="215.705" y="53.8173" width="4.02136" height="6.14575" filterUnits="userSpaceOnUse" color-interpolation-filters="sRGB">
<feFlood flood-opacity="0" result="BackgroundImageFix"/>
<feBlend mode="normal" in="SourceGraphic" in2="BackgroundImageFix" result="shape"/>
<feGaussianBlur stdDeviation="0.621734" result="effect1_foregroundBlur_4_610"/>
</filter>
<filter id="filter8_f_4_610" x="218.466" y="53.5438" width="5.23163" height="5.84155" filterUnits="userSpaceOnUse" color-interpolation-filters="sRGB">
<feFlood flood-opacity="0" result="BackgroundImageFix"/>
<feBlend mode="normal" in="SourceGraphic" in2="BackgroundImageFix" result="shape"/>
<feGaussianBlur stdDeviation="0.621734" result="effect1_foregroundBlur_4_610"/>
</filter>
<filter id="filter9_f_4_610" x="216.982" y="56.435" width="5.75326" height="4.72359" filterUnits="userSpaceOnUse" color-interpolation-filters="sRGB">
<feFlood flood-opacity="0" result="BackgroundImageFix"/>
<feBlend mode="normal" in="SourceGraphic" in2="BackgroundImageFix" result="shape"/>
<feGaussianBlur stdDeviation="0.466787" result="effect1_foregroundBlur_4_610"/>
</filter>
<filter id="filter10_d_4_610" x="355.56" y="54.3402" width="260" height="556" filterUnits="userSpaceOnUse" color-interpolation-filters="sRGB">
<feFlood flood-opacity="0" result="BackgroundImageFix"/>
<feColorMatrix in="SourceAlpha" type="matrix" values="0 0 0 0 0 0 0 0 0 0 0 0 0 0 0 0 0 0 127 0" result="hardAlpha"/>
<feOffset dy="4"/>
<feGaussianBlur stdDeviation="2"/>
<feComposite in2="hardAlpha" operator="out"/>
<feColorMatrix type="matrix" values="0 0 0 0 0.568783 0 0 0 0 0.567968 0 0 0 0 0.567968 0 0 0 0.05 0"/>
<feBlend mode="normal" in2="BackgroundImageFix" result="effect1_dropShadow_4_610"/>
<feBlend mode="normal" in="SourceGraphic" in2="effect1_dropShadow_4_610" result="shape"/>
</filter>
<filter id="filter11_d_4_610" x="627.56" y="54.3402" width="260" height="556" filterUnits="userSpaceOnUse" color-interpolation-filters="sRGB">
<feFlood flood-opacity="0" result="BackgroundImageFix"/>
<feColorMatrix in="SourceAlpha" type="matrix" values="0 0 0 0 0 0 0 0 0 0 0 0 0 0 0 0 0 0 127 0" result="hardAlpha"/>
<feOffset dy="4"/>
<feGaussianBlur stdDeviation="2"/>
<feComposite in2="hardAlpha" operator="out"/>
<feColorMatrix type="matrix" values="0 0 0 0 0.568783 0 0 0 0 0.567968 0 0 0 0 0.567968 0 0 0 0.05 0"/>
<feBlend mode="normal" in2="BackgroundImageFix" result="effect1_dropShadow_4_610"/>
<feBlend mode="normal" in="SourceGraphic" in2="effect1_dropShadow_4_610" result="shape"/>
</filter>
<filter id="filter12_d_4_610" x="899.56" y="54.3402" width="260" height="556" filterUnits="userSpaceOnUse" color-interpolation-filters="sRGB">
<feFlood flood-opacity="0" result="BackgroundImageFix"/>
<feColorMatrix in="SourceAlpha" type="matrix" values="0 0 0 0 0 0 0 0 0 0 0 0 0 0 0 0 0 0 127 0" result="hardAlpha"/>
<feOffset dy="4"/>
<feGaussianBlur stdDeviation="2"/>
<feComposite in2="hardAlpha" operator="out"/>
<feColorMatrix type="matrix" values="0 0 0 0 0.568783 0 0 0 0 0.567968 0 0 0 0 0.567968 0 0 0 0.05 0"/>
<feBlend mode="normal" in2="BackgroundImageFix" result="effect1_dropShadow_4_610"/>
<feBlend mode="normal" in="SourceGraphic" in2="effect1_dropShadow_4_610" result="shape"/>
</filter>
<linearGradient id="paint0_linear_4_610" x1="333.56" y1="165.49" x2="333.56" y2="230.752" gradientUnits="userSpaceOnUse">
<stop stop-opacity="0.996971"/>
<stop offset="0.0951211" stop-opacity="0.01"/>
<stop offset="0.895463" stop-opacity="0.01"/>
<stop offset="1"/>
</linearGradient>
<radialGradient id="paint1_radial_4_610" cx="0" cy="0" r="1" gradientUnits="userSpaceOnUse" gradientTransform="translate(224.974 63.4883) rotate(45.1938) scale(7.67453)">
<stop stop-color="#434343"/>
<stop offset="1" stop-color="#121212"/>
</radialGradient>
<radialGradient id="paint2_radial_4_610" cx="0" cy="0" r="1" gradientUnits="userSpaceOnUse" gradientTransform="translate(219.555 54.7858) rotate(90) scale(4.57447)">
<stop stop-color="#2A4893"/>
<stop offset="1" stop-color="#213054"/>
</radialGradient>
<clipPath id="clip0_4_610">
<rect width="34.156" height="5.48936" fill="white" transform="translate(173.049 54.4813)"/>
</clipPath>
<clipPath id="clip1_4_610">
<rect width="7.62411" height="7.62411" fill="white" transform="translate(215.744 53.2624)"/>
</clipPath>
</defs>
</svg>
